<?xml version="1.0" standalone="no"?>
<!DOCTYPE svg PUBLIC "-//W3C//DTD SVG 20010904//EN"
 "http://www.w3.org/TR/2001/REC-SVG-20010904/DTD/svg10.dtd">
<svg version="1.0" xmlns="http://www.w3.org/2000/svg"
 width="294.000000pt" height="63.000000pt" viewBox="0 0 294.000000 63.000000"
 preserveAspectRatio="xMidYMid meet">

<g transform="translate(0.000000,63.000000) scale(0.100000,-0.100000)"
fill="#000000" stroke="none">
<path d="M92 578 c-30 -30 -2 -86 37 -73 23 7 19 18 61 -180 18 -82 37 -156
42 -162 14 -17 122 -17 136 0 5 6 18 65 28 130 9 64 20 117 24 117 3 0 14 -53
24 -117 10 -65 22 -123 28 -130 14 -17 122 -17 136 0 5 6 19 57 31 112 12 55
29 129 37 165 l14 65 45 2 45 1 0 -143 0 -144 -27 -3 c-30 -3 -44 -38 -24 -62
12 -14 167 -16 189 -3 20 13 15 58 -8 64 -17 5 -20 14 -20 72 0 71 17 111 49
111 32 0 41 -22 41 -101 0 -59 -3 -78 -15 -83 -19 -7 -19 -50 0 -66 9 -8 28
-10 54 -5 62 10 81 1 74 -38 -4 -26 1 -37 22 -57 22 -21 37 -25 84 -25 48 0
64 5 94 28 45 35 59 58 123 222 46 117 54 130 78 133 30 4 46 43 26 67 -14 17
-157 20 -177 3 -19 -15 -16 -44 6 -59 18 -14 18 -16 -8 -94 l-28 -80 -26 80
c-31 93 -32 95 -13 95 24 0 39 26 27 49 -10 17 -21 20 -100 20 -98 0 -118 -10
-107 -53 4 -17 14 -26 33 -28 25 -3 32 -14 75 -123 53 -133 56 -154 30 -178
-25 -23 -28 -22 -41 13 -6 18 -17 30 -28 30 -14 0 -18 8 -18 32 0 26 -5 33
-25 38 -24 6 -25 9 -30 113 -4 91 -8 110 -26 127 -32 32 -95 37 -138 12 l-35
-21 -3 67 -3 67 -164 3 c-177 3 -194 -2 -189 -47 2 -18 10 -27 26 -29 12 -2
22 -9 22 -15 1 -26 -35 -207 -41 -207 -3 0 -14 57 -24 128 -25 178 -22 172
-95 172 -73 0 -70 6 -96 -172 -10 -71 -21 -128 -24 -128 -6 0 -41 179 -40 207
0 6 10 13 23 15 25 3 35 41 17 64 -16 18 -190 20 -208 2z"/>
<path d="M1617 584 c-4 -4 -7 -42 -7 -85 0 -82 12 -109 50 -109 33 0 51 29 48
74 -3 35 0 41 18 44 38 5 45 -18 42 -144 l-3 -119 -40 -3 c-22 -2 -45 -8 -52
-14 -17 -13 -17 -53 0 -66 16 -13 288 -13 305 0 16 13 16 53 -1 66 -6 6 -28
12 -47 14 l-35 3 -3 110 c-3 135 1 157 31 153 19 -3 22 -8 19 -44 -5 -64 43
-97 83 -58 12 13 15 33 13 98 l-3 81 -206 3 c-113 1 -208 -1 -212 -4z"/>
<path d="M2110 472 c-55 -27 -80 -74 -80 -149 0 -125 48 -178 162 -178 72 0
102 14 142 68 31 41 34 134 7 191 -38 77 -148 110 -231 68z m122 -79 c23 -21
25 -118 2 -151 -35 -51 -94 -13 -101 65 -8 80 50 130 99 86z"/>
<path d="M2400 250 c-40 -40 -11 -110 45 -110 32 0 65 33 65 65 0 14 -9 34
-20 45 -11 11 -31 20 -45 20 -14 0 -34 -9 -45 -20z"/>
<path d="M2580 250 c-40 -40 -11 -110 45 -110 32 0 65 33 65 65 0 32 -33 65
-65 65 -14 0 -34 -9 -45 -20z"/>
<path d="M2760 250 c-40 -40 -11 -110 45 -110 32 0 65 33 65 65 0 32 -33 65
-65 65 -14 0 -34 -9 -45 -20z"/>
</g>
</svg>
